<svg width="1024" height="1024" viewBox="0 0 1024 1024" fill="none" xmlns="http://www.w3.org/2000/svg">
  <rect width="1024" height="1024" fill="#DBEE69"/>
  <g transform="translate(286 249) scale(1.20212766)" fill="#18181B">
    <path d="M27.0581 207.273L119.829 139.627V358.508L27.0581 431.952V207.273Z"/>
    <path d="M258.985 202.458C197.967 203.49 148.82 253.274 148.82 314.539C148.82 319.848 149.188 325.071 149.902 330.184L133.358 342.963V91.5967L258.985 14V202.458Z"/>
    <path d="M321.799 163.107V220.4C307.326 211.022 290.555 204.889 272.515 203.035V139.627L321.799 163.107Z"/>
    <rect y="479.466" width="261.884" height="68.9713" transform="rotate(-37.685 0 479.466)"/>
    <path d="M260.918 235.297C271.261 235.297 281.141 237.28 290.2 240.884L245.756 280.853C239.186 286.762 238.65 296.878 244.559 303.448L269.281 330.939C275.19 337.509 285.306 338.045 291.876 332.137L336.823 291.715C338.993 298.943 340.16 306.605 340.16 314.539C340.159 358.303 304.682 393.78 260.918 393.78C217.155 393.78 181.676 358.303 181.676 314.539C181.676 270.775 217.154 235.297 260.918 235.297Z"/>
  </g>
</svg>
