<svg width="542" height="542" viewBox="0 0 542 542" fill="none" xmlns="http://www.w3.org/2000/svg">
<g clip-path="url(#clip0_40_19)">
<rect x="-14" y="-43" width="570" height="632" fill="#895129"/>
<path d="M144.058 269.273L236.829 201.627V420.508L144.058 493.952V269.273Z" fill="white"/>
<path d="M250.358 153.597L375.986 76V327.08L250.358 411.328V153.597Z" fill="white"/>
<path d="M438.799 225.107L389.514 201.627V277.602L438.799 303.095V225.107Z" fill="white"/>
<rect x="129.747" y="498.134" width="325.928" height="121.971" transform="rotate(-37.685 129.747 498.134)" fill="#895129"/>
<circle cx="377.918" cy="376.539" r="112.098" fill="#895129"/>
<rect x="117" y="541.466" width="261.884" height="68.9713" transform="rotate(-37.685 117 541.466)" fill="white"/>
<path d="M377.918 297.297C388.261 297.297 398.141 299.28 407.2 302.884L362.756 342.853C356.186 348.762 355.65 358.878 361.559 365.448L386.281 392.939C392.19 399.509 402.306 400.045 408.876 394.137L453.823 353.715C455.993 360.943 457.16 368.605 457.16 376.539C457.159 420.303 421.682 455.78 377.918 455.78C334.155 455.78 298.676 420.303 298.676 376.539C298.676 332.775 334.154 297.297 377.918 297.297Z" fill="white"/>
</g>
<defs>
<clipPath id="clip0_40_19">
<rect width="542" height="542" rx="74" fill="white"/>
</clipPath>
</defs>
</svg>
